<?xml version="1.0" standalone="no"?>
<!DOCTYPE svg PUBLIC "-//W3C//DTD SVG 20010904//EN"
 "http://www.w3.org/TR/2001/REC-SVG-20010904/DTD/svg10.dtd">
<svg version="1.0" xmlns="http://www.w3.org/2000/svg"
 width="1024.000000pt" height="1024.000000pt" viewBox="0 0 1024.000000 1024.000000"
 preserveAspectRatio="xMidYMid meet">

<g transform="translate(0.000000,1024.000000) scale(0.100000,-0.100000)"
fill="#000000" stroke="none">
<path d="M0 5120 l0 -5120 5120 0 5120 0 0 5120 0 5120 -5120 0 -5120 0 0
-5120z m3902 -1379 c54 -21 178 -104 178 -119 0 -4 -22 -31 -48 -61 l-48 -54
-46 35 c-68 52 -130 73 -214 72 -128 -1 -229 -72 -275 -193 -29 -78 -23 -195
13 -266 56 -108 146 -164 265 -165 85 0 157 23 216 72 l41 32 48 -54 c27 -30
47 -59 45 -65 -7 -20 -101 -84 -156 -105 -235 -90 -502 -3 -609 198 -149 282
-14 611 283 689 76 19 236 11 307 -16z m1849 15 c63 -14 142 -48 183 -80 17
-14 16 -17 -24 -74 l-41 -60 -70 36 c-64 33 -78 36 -155 37 -84 0 -86 -1 -115
-33 -33 -36 -36 -60 -14 -102 16 -31 77 -63 190 -100 199 -65 278 -146 276
-283 0 -32 -8 -74 -18 -94 -69 -146 -292 -209 -506 -143 -60 19 -167 78 -167
93 0 13 81 118 88 115 69 -37 151 -69 201 -78 146 -26 253 39 221 134 -15 45
-59 72 -200 121 -177 61 -260 134 -275 244 -27 196 172 320 426 267z m-780
-451 c98 -247 179 -452 179 -455 0 -3 -40 -5 -89 -5 l-90 0 -39 100 -40 100
-197 0 -198 0 -37 -100 -38 -100 -91 0 c-57 0 -90 4 -87 10 3 8 332 840 353
893 4 9 30 12 100 10 l94 -3 180 -450z m1409 270 l0 -185 225 0 225 0 0 185 0
185 85 0 85 0 0 -457 0 -458 -85 -1 -85 -1 0 204 0 203 -225 0 -225 0 0 -202
0 -203 -85 -2 -85 -3 0 460 0 460 85 0 85 0 0 -185z m-2638 -1094 c63 -24 178
-97 178 -112 0 -6 -21 -35 -47 -64 l-46 -54 -48 34 c-64 48 -118 65 -203 65
-120 0 -217 -64 -268 -175 -33 -74 -32 -190 3 -265 35 -74 67 -110 129 -144
103 -56 229 -44 334 31 l49 35 53 -53 54 -53 -31 -32 c-39 -40 -108 -77 -183
-99 -45 -13 -85 -16 -171 -13 -98 4 -118 8 -177 35 -240 112 -335 414 -206
655 58 109 158 189 279 223 77 21 226 14 301 -14z m1873 14 c161 -42 277 -155
327 -318 16 -54 20 -87 16 -160 -3 -81 -8 -102 -41 -170 -48 -103 -121 -176
-223 -224 -67 -32 -87 -37 -176 -41 -166 -8 -265 25 -369 125 -264 252 -157
694 191 785 82 21 199 23 275 3z m-984 -19 c102 -38 168 -124 177 -231 9 -117
-35 -210 -125 -261 -26 -15 -50 -29 -51 -30 -4 -2 17 -40 159 -281 l49 -83
-98 0 -97 1 -100 174 -100 175 -62 0 -63 0 0 -175 0 -175 -85 0 -85 0 0 456 0
456 218 -4 c173 -4 226 -8 263 -22z m1613 -29 c57 -195 156 -563 156 -579 0
-46 18 -7 55 120 21 75 64 220 95 322 l56 185 75 3 74 2 95 -325 c84 -287 110
-361 110 -311 0 8 33 135 74 283 41 147 79 287 85 311 l12 42 88 0 88 0 -112
-367 c-62 -203 -124 -407 -139 -455 l-27 -88 -79 0 -79 0 -35 115 c-38 121
-87 280 -132 430 l-27 90 -18 -60 c-10 -33 -53 -176 -96 -318 l-78 -257 -79 2
-80 3 -128 425 c-70 234 -130 437 -133 453 l-7 27 85 0 86 0 15 -53z"/>
<path d="M4680 3550 c0 -6 -29 -90 -65 -186 -36 -97 -65 -177 -65 -180 0 -2
66 -4 146 -4 135 0 146 1 140 18 -117 310 -156 398 -156 352z"/>
<path d="M5387 2346 c-129 -46 -207 -160 -207 -301 0 -178 131 -315 302 -315
224 0 368 237 273 449 -64 142 -228 216 -368 167z"/>
<path d="M4320 2215 l0 -148 109 6 c152 8 196 34 208 125 7 55 -18 103 -68
131 -33 19 -62 24 -145 29 l-104 5 0 -148z"/>
</g>
</svg>
